<svg xmlns="http://www.w3.org/2000/svg" xmlns:xlink="http://www.w3.org/1999/xlink" width="256" height="256" viewBox="0 0 255.99996 256"><g transform="translate(0 -796.362)"><g transform="translate(650.103 -830.183)" fill="#2e3436"><title>go-home</title></g><text y="-1022.26" x="-3118.44" style="line-height:240.00000954%;-inkscape-font-specification:Cantarell" font-weight="400" font-size="14" font-family="Cantarell" letter-spacing="0" word-spacing="0" fill="#2e3436"/><text y="129.208" x="-3007.533" style="line-height:240.00000954%;-inkscape-font-specification:Cantarell" font-weight="400" font-size="14" font-family="Cantarell" letter-spacing="0" word-spacing="0" fill="#2e3436"/><text y="-821.126" x="-1935.961" style="line-height:240.00000954%;-inkscape-font-specification:Cantarell" font-weight="400" font-size="14" font-family="Cantarell" letter-spacing="0" word-spacing="0" fill="#2e3436"/><use xlink:href="#g2204" width="1" height="1" transform="translate(-1732 -755.693)"/><use xlink:href="#g2204" width="1" height="1" transform="translate(-1732 -755.693)"/><use xlink:href="#g2204" width="1" height="1" transform="translate(-1732 -755.693)"/><use xlink:href="#g2204" width="1" height="1" transform="translate(-1732 -755.693)"/><use xlink:href="#g2204" width="1" height="1" transform="translate(-1732 -755.693)"/><use xlink:href="#g2204" width="1" height="1" transform="translate(-1732 -755.693)"/><use xlink:href="#g2204" width="1" height="1" transform="translate(-1732 -755.693)"/><use xlink:href="#g2204" width="1" height="1" transform="translate(-1732 -755.693)"/><use xlink:href="#g2204" width="1" height="1" transform="translate(-1732 -755.693)"/><use xlink:href="#g2204" width="1" height="1" transform="translate(-1732 -755.693)"/><use xlink:href="#g2204" width="1" height="1" transform="translate(-1732 -755.693)"/><use xlink:href="#g2204" width="1" height="1" transform="translate(-1732 -755.693)"/><use xlink:href="#g2204" width="1" height="1" transform="translate(-1732 -755.693)"/><use xlink:href="#g2204" width="1" height="1" transform="translate(-1732 -755.693)"/><use xlink:href="#g2204" width="1" height="1" transform="translate(-1732 -755.693)"/><use xlink:href="#g2204" width="1" height="1" transform="translate(-1732 -755.693)"/><use xlink:href="#g2204" width="1" height="1" transform="translate(-1732 -755.693)"/><use xlink:href="#g2204" width="1" height="1" transform="translate(-1732 -755.693)"/><use xlink:href="#g2204" width="1" height="1" transform="translate(-1732 -755.693)"/><use xlink:href="#g2204" width="1" height="1" transform="translate(-1732 -755.693)"/><use xlink:href="#g2204" width="1" height="1" transform="translate(-1966 -849.693)"/><use xlink:href="#g2204" width="1" height="1" transform="translate(-1966 -849.693)"/><use xlink:href="#g2204" width="1" height="1" transform="translate(-1966 -849.693)"/><use xlink:href="#g2204" width="1" height="1" transform="translate(-1966 -849.693)"/><use xlink:href="#g2204" width="1" height="1" transform="translate(-1966 -849.693)"/><use xlink:href="#g2204" width="1" height="1" transform="translate(-1966 -849.693)"/><use xlink:href="#g2204" width="1" height="1" transform="translate(-1966 -849.693)"/><use xlink:href="#g2204" width="1" height="1" transform="translate(-1732 -755.693)"/><use xlink:href="#g2204" width="1" height="1" transform="translate(-1732 -755.693)"/><use xlink:href="#g2204" width="1" height="1" transform="translate(-1732 -755.693)"/><use xlink:href="#g2204" width="1" height="1" transform="translate(-1732 -755.693)"/><use xlink:href="#g2204" width="1" height="1" transform="translate(-1732 -755.693)"/><use xlink:href="#g2204" width="1" height="1" transform="translate(-1732 -755.693)"/><use xlink:href="#g2204" width="1" height="1" transform="translate(-1732 -755.693)"/><use xlink:href="#g2204" width="1" height="1" transform="translate(-1732 -755.693)"/><use xlink:href="#g2204" width="1" height="1" transform="translate(-1732 -755.693)"/><use xlink:href="#g2204" width="1" height="1" transform="translate(-1732 -755.693)"/><use xlink:href="#g2204" width="1" height="1" transform="translate(-1732 -755.693)"/><use xlink:href="#g2204" width="1" height="1" transform="translate(-1732 -755.693)"/><use xlink:href="#g2204" width="1" height="1" transform="translate(-1732 -755.693)"/><use xlink:href="#g2204" width="1" height="1" transform="translate(-1732 -755.693)"/><use xlink:href="#g2204" width="1" height="1" transform="translate(-1732 -755.693)"/><use xlink:href="#g2204" width="1" height="1" transform="translate(-1732 -755.693)"/><use xlink:href="#g2204" width="1" height="1" transform="translate(-1732 -755.693)"/><use xlink:href="#g8296" width="16" height="16" transform="matrix(-1 0 0 1 -5105.99 -1209.638)"/><use height="16" width="16" xlink:href="#g8296" transform="matrix(-1 0 0 1 -5105.99 -1209.638)"/><use height="16" width="16" xlink:href="#g8296" transform="matrix(-1 0 0 1 -11152.662 -4805.513)"/><use xlink:href="#g8296" width="16" height="16" transform="matrix(-1 0 0 1 -11152.662 -4805.513)"/><use transform="matrix(.93617 0 0 .93566 -2990.015 419.701)" xlink:href="#g7025" width="1" height="1"/><flowRoot xml:space="preserve" style="line-height:125%;-inkscape-font-specification:'Sans Bold'" transform="translate(-2972.254 -659.326)" font-style="normal" font-weight="700" font-size="40" font-family="Sans" letter-spacing="0" word-spacing="0" fill="#000" fill-opacity="1" stroke="none" stroke-width="1" stroke-linecap="butt" stroke-linejoin="miter" stroke-opacity="1"><flowRegion><path d="M836.507-477.853h192.333v145.664H836.507z"/></flowRegion><flowPara/></flowRoot><path d="M-522.635 224.52l3.929-50.178 1.11-14.169 67.175 29.699" fill="none" stroke="#2e3436" stroke-width="4.261" stroke-linejoin="round" transform="matrix(1.17234 0 0 1.17434 733.203 610.767)"/><path d="M208.028 961.764c0 50.037-40.506 90.6-90.466 90.6-49.964 0-90.468-40.564-90.468-90.6 0-50.034 40.504-90.593 90.468-90.593 49.96 0 90.466 40.559 90.466 90.593zM228.907 832.927c0 11.067-8.959 20.038-20.008 20.038-11.051 0-20.01-8.971-20.01-20.038 0-11.066 8.959-20.036 20.01-20.036 11.05 0 20.008 8.97 20.008 20.036z" fill="#2e3436"/></g></svg>